<?xml version="1.0" encoding="UTF-8"?><svg id="_레이어_2" xmlns="http://www.w3.org/2000/svg" viewBox="0 0 378.77 328.4"><defs><style>.cls-1{fill:#f8682c;}.cls-2{fill:#00b4f1;}.cls-3{fill:#ffc300;}.cls-4{fill:#91c300;}</style></defs><g id="svg28507"><g id="g5045"><path id="path4518-2" d="m292.42,328.4l86.35-207.9c-37.88-41.96-85-62.53-141.58-61.46l-86.9,209.82c53.05-7.04,100.14,12.96,142.14,59.54Z"/><path id="path4594-9" class="cls-1" d="m53.62,60.37l-3.53,8.94h11.09l3.79-9.48-11.35.54Zm12.18-28.96l-3.79,8.94,11.38-.28,3.77-9.46-11.36.8Zm5.95,45.25l-5.41,12.71,15.43-1.89,5.69-13.25-15.71,2.42Zm12.18-29.27l-5.41,12.75,15.41-1.9,5.41-13.25-15.41,2.41Zm6.78,48.74l-6.23,15.17,20.32-.55,6.47-15.97-20.57,1.35Zm12.19-28.99l-6.23,15.15,20.03-.78,6.5-15.45-20.31,1.07Zm12.71,38.19l-8.67,21.38,25.17-1.35,8.67-20.86-25.17.83Zm12.18-28.99l-8.93,21.12,25.17-1.35,8.7-20.86-24.94,1.09Zm33.82,62.81l10.03-24.1-29.77,2.42-9.76,23.82,29.49-2.15Zm12.21-29.23l9.76-23.82-29.51,2.15-10.03,24.1,29.79-2.42Z"/><path id="path4600-1" class="cls-2" d="m16.26,150.82l-3.79,8.93,11.38-.26,4.03-9.24-11.63.57Zm12.18-29.25l-3.79,8.67,11.37-.26,3.77-8.93-11.35.52Zm5.95,45.22l-5.12,12.71,15.14-1.89,5.41-13.27-15.43,2.44Zm12.19-29.22l-5.12,12.7,15.14-1.87,5.43-12.99-15.45,2.16Zm6.78,48.73l-6.24,15.43,20.32-.81,6.21-15.71-20.29,1.09Zm12.18-29.27l-6.49,15.45,20.58-.81,6.23-15.72-20.32,1.09Zm12.7,38.73l-8.67,20.84,24.91-1.06,8.93-21.12-25.17,1.33Zm11.93-29.23l-8.93,21.38,25.45-1.33,8.65-21.1-25.17,1.06Zm14.06,41.15l-9.74,24.08,29.8-2.44,10-24.1-30.06,2.46Zm12.18-29.27l-9.74,24.08,29.77-2.37,9.77-24.13-29.8,2.42Z"/><path id="path4602-1" d="m3.53,181.14l-3.53,8.96,11.38-.31,3.79-9.48-11.64.83Zm37.62-90.42l-3.77,8.91h11.36l4.05-9.48-11.64.57ZM78.24,1.09l-3.77,8.67,11.61-.28,4.08-9.48-11.92,1.09ZM21.67,197.11l-4.88,12.47,15.17-1.66,5.41-13.25-15.71,2.44Zm37.62-90.16l-5.41,12.75,15.15-1.9,5.69-13.28-15.43,2.44ZM106.69,27.64l5.41-13.01-15.43,2.18-5.15,12.71,15.17-1.89ZM40.65,216.59l-6.26,15.45,20.31-.81,6.5-15.69-20.55,1.06Zm57.91-91.21l-20.32,1.09-6.49,15.17,20.32-.5,6.49-15.75Zm17.06-88.82l-6.21,15.17,20.01-.83,6.5-15.41-20.31,1.07Zm-33.57,209.3l8.67-21.12-24.91,1.07-8.93,21.07,25.17-1.02Zm46.03-111.02l-25.17.8-8.67,21.4,25.2-1.33,8.63-20.86Zm37.36-90.42l-24.91,1.09-8.93,21.4,25.17-1.38,8.67-21.1Zm-53.88,215.2l10-23.82-29.48,2.15-10.03,23.84,29.51-2.16Zm17.85-111.78l-10.29,24.1,30.06-2.44,9.74-24.1-29.51,2.44Zm37.38-90.17l-10.03,24.11,29.51-2.44,10.03-23.8-29.51,2.13Zm-10.03,183.03l-31.67,1.92-11.09,26.5,32.19-2.99,10.57-25.43Zm12.75-30.34l-31.97,1.92-10.81,26.53,31.95-2.72,10.83-25.74Zm12.73-30.86l-31.95,1.9-10.84,26.27,32.21-2.72,10.58-25.46Zm12.45-29.77l-31.97,1.9-10.81,26.26,31.95-2.72,10.83-25.45Zm12.44-30.31l-31.66,1.87-11.12,26.29,32.21-2.46,10.57-25.71Zm12.45-30.32l-31.69,2.16-11.07,26.53,32.19-2.98,10.57-25.72Zm12.71-30.06l-31.95,1.89-10.83,26.53,31.95-2.99,10.83-25.43Z"/><path id="path4604-0" class="cls-1" d="m232.85,88.17c-2.52,0-5.11.02-7.76.08l-27.36,66.07c20.16-.79,37.93,1.42,52.99,6.22l27.61-66.32c-11.84-4.04-27.01-5.98-45.47-6.05Z"/><path id="path4606-4" class="cls-4" d="m341.94,125.91c-12.45-12.73-27.09-21.66-43.85-27.09l-28.16,67.96c16.83,5.49,33.3,15.65,44.37,26l27.64-66.87Z"/><path id="path4608-8" class="cls-3" d="m306.2,211.76c-12.47-12.49-27.35-20.88-44.4-25.46l-27.07,65.23c15.69,5.43,30.34,14.36,44.42,26.26l27.05-66.03Z"/><path id="path4610-7" class="cls-2" d="m199.52,174.52c-3.4,0-6.85.13-10.33.38l-26.58,64.18c15.86-.8,33.58,1.13,53.44,5.4l26.24-63.34c-13.42-4.4-27.71-6.65-42.77-6.62Z"/></g></g></svg>